<svg width="294" height="180" viewBox="0 0 294 180" fill="none" xmlns="http://www.w3.org/2000/svg">
<path d="M1 103.385C1.91423 102.732 3.77582 103.242 4.88547 103.226C6.77003 103.198 9.0226 102.894 9.82046 101.231C10.3635 100.099 10.6428 98.9187 11.2273 97.7999C11.7637 96.773 11.848 95.4834 12.2991 94.4088C13.0323 92.6623 13.1058 92.7119 14.5768 92.813C16.572 92.9501 18.5424 93.2672 20.5613 93.3316C21.9467 93.3758 24.0169 93.0642 25.3177 93.5112C26.3617 93.8699 26.9211 93.3329 27.506 94.5085C27.9842 95.4697 28.3323 96.5813 28.3323 97.6404C28.3323 99.2367 28.6724 100.788 28.7342 102.388C28.7917 103.877 29.1686 105.502 29.4488 106.976C29.866 109.171 29.6613 111.93 30.5429 113.978C31.0118 115.067 31.6376 116.253 31.9498 117.369C32.1608 118.123 32.3148 117.947 32.575 117.349C33.201 115.911 33.5422 114.823 35.5226 114.676C36.6239 114.594 39.0452 114.547 39.4974 113.519C40.4555 111.34 40.8509 108.915 41.2392 106.617C41.5977 104.495 42.0954 102.385 42.8023 100.333C43.165 99.2802 43.8136 100.199 44.4994 100.593C45.8594 101.374 47.2621 102.203 48.8538 102.448C51.2129 102.811 54.0571 101.654 56.2451 102.009C56.9993 102.131 56.7655 102.799 57.7189 102.468C58.8386 102.079 59.4545 101.986 60.5772 102.228C61.7948 102.491 63.2677 101.911 64.552 102.029C65.3453 102.102 66.0256 102.308 66.8296 102.308C68.0502 102.308 69.1726 102.807 70.3355 102.647C72.6082 102.335 74.6049 103.312 76.7666 102.867C78.057 102.601 79.4291 103.026 80.6744 103.026C81.7006 103.026 82.675 102.647 83.7113 102.667C85.0406 102.694 85.9853 103.103 87.4405 103.046C89.3722 102.971 91.0568 103.385 92.9561 103.385C97.3032 103.385 101.596 102.627 105.93 102.627C107.131 102.627 108.449 101.911 109.704 101.809C110.56 101.74 112.088 103.384 113.031 103.665C114.215 104.017 115.334 102.505 116.046 101.869C118.568 99.6162 119.318 96.909 120.4 94.0098C121.04 92.2947 120.857 91.0114 121.673 93.0524C122.097 94.1125 124.062 95.2037 125.402 94.9274C127.477 94.4997 129.614 95.4461 131.632 95.4461C133.124 95.4461 134.195 94.946 135.741 95.4062C137.128 95.8193 138.522 95.2282 139.76 94.6482C141.056 94.041 140.819 93.1049 141.681 92.2544C142.239 91.7033 145.246 91.4122 145.656 92.2544C149.386 99.9186 148.738 106.976 149.939 115.075C151.153 116.849 155.202 115.199 155.95 113.938C159.694 107.619 157.746 100.478 157.746 93.5112C157.746 91.9269 161.572 91.8112 163.185 92.2544C165.222 92.8144 165.465 104.881 165.395 106.617C165.225 110.882 166.803 113.076 167.955 117.708C168.317 119.161 169.326 119.681 170.04 117.708C170.662 115.99 171.37 115.248 172.028 113.519C172.799 111.49 171.357 108.899 172.028 106.836C172.922 104.084 173.468 102.277 176.65 101.77C179.114 101.376 181.708 101.626 184.198 101.59C185.577 101.57 186.748 101.25 188.172 101.311C189.891 101.384 192.55 102.051 194.246 101.51C195.413 101.138 197.985 99.6113 198.355 98.538C198.669 97.6258 199.382 96.8852 199.739 95.9847C200.446 94.2064 200.808 91.7849 202.464 90.4591C204.031 89.2037 204.538 89.5113 206.416 89.7211C210.677 90.1968 214.702 89.1377 218.943 89.0229C220.845 88.9714 222.757 89.0229 224.66 89.0229C226.573 89.0229 228.452 89.1089 230.332 89.4617C231.871 89.7507 233.55 90.6259 235.133 90.2995C235.789 90.1643 236.655 90.4591 237.344 90.4591C238.385 90.4591 238.495 90.0894 239.353 89.761C240.364 89.3738 240.983 89.1986 241.452 90.3594C243.034 94.2714 244.073 98.9314 244.177 103.106C244.222 104.945 244.892 106.638 245.382 108.392C245.528 108.913 245.721 109.588 246.03 110.048C247.282 111.911 248.084 109.954 249 108.771" stroke="#C80751" stroke-width="0.5" stroke-linecap="round"/>
<path d="M3 102.239C4.55993 102.905 7.34339 102.048 9.05997 101.853C10.8767 101.647 12.6113 97.3186 13.8677 96.0523C14.7755 95.1374 15.6571 93.8055 16.3722 95.2207C16.4776 95.4293 19.634 95.996 19.9947 95.9509C20.965 95.8295 22.5288 96.5573 23.349 97.0462C23.9988 97.4336 25.4661 97.2984 26.3454 97.4924C28.9369 98.0642 29.8894 102.429 30.5717 104.409C30.9024 105.369 31.2327 106.284 31.7569 107.167C32.0237 107.617 32.3713 110.616 32.6066 110.616C33.4834 110.616 34.2732 110.595 35.2006 110.595C35.8082 110.595 36.1944 110.068 36.8106 110.068C37.3859 110.068 37.8188 110.632 38.3982 110.413C41.0609 109.406 37.7073 102.968 40.4331 101.732C41.3671 101.308 41.1746 102.725 42.5351 101.59C43.482 100.799 43.2286 103.273 44.4582 102.158C45.665 101.063 50.6746 101.463 52.1953 102.076C52.4889 102.195 55.1635 101.385 55.639 101.143C56.2855 100.815 56.0363 101.45 56.6005 101.61C57.3631 101.826 58.0193 101.039 58.7696 101.225C60.0968 101.553 61.0622 101.47 62.3474 101.995C63.1129 102.308 63.8395 102.105 64.6059 102.279C65.2908 102.435 65.7977 103.149 66.5067 103.172C68.2902 103.229 69.559 96.1228 69.8162 95.1396C70.1202 93.9775 73.1693 87.1664 75.004 90.4948C75.6458 91.659 76.4969 89.0944 77.2625 89.866C78.6952 91.3099 81.5402 89.3056 83.3225 89.5212C84.0543 89.6097 84.6308 90.2832 85.4245 90.1094C85.9895 89.9857 86.2794 89.5285 86.9227 89.6632C87.9363 89.8753 88.9687 89.7259 89.9639 90.008C91.5649 90.4618 94.5841 89.9642 95.7555 88.933C97.6681 87.2492 96.5325 88.9872 98.0811 89.0952C99.2078 89.1739 100.145 88.6739 101.212 88.4462C103.627 87.9307 105.577 89.0952 107.853 89.0952C108.885 89.0952 109.016 88.6899 109.441 89.4603C109.926 90.3413 110.172 91.4359 110.469 92.3811C111.181 94.6416 112.079 95.868 112.079 98.3849C112.079 100.278 112.079 102.171 112.079 104.064C112.079 104.759 111.773 106.212 112.169 106.823C112.411 107.195 113.165 106.89 113.488 106.823C114.077 106.699 114.488 107.285 114.986 107.188C116.541 106.886 116.624 103.67 116.999 102.523C117.573 100.766 117.714 98.6848 117.714 96.8434C117.714 95.9322 117.999 95.0989 118.139 94.2066C118.391 92.6063 121.107 95.1358 122.12 94.7339C124.148 93.929 126.351 94.523 128.537 93.8618C129.226 93.6537 129.312 93.6718 129.79 94.1254C130.45 94.7529 131.285 94.1328 132.048 94.1052C133.509 94.0522 135.259 95.3364 136.655 95.099C137.618 94.9352 139.035 95.3436 139.852 95.0787C141.006 94.705 141.454 93.2789 142.29 92.5839C143.621 91.4773 145.72 91.6529 147.276 92.3C148.434 92.7813 147.774 94.5251 147.992 95.4641C148.542 97.8345 149.013 100.289 149.423 102.685C150.063 106.428 150.318 110.454 150.318 114.206C150.318 115.674 150.394 115.182 151.346 115.909C152.36 116.684 152.735 115.704 154.03 115.747C158.156 115.886 156.424 110.885 156.959 108.263C157.486 105.682 157.563 102.875 157.563 100.251C157.563 98.7243 157.363 97.0913 157.652 95.5858C157.993 93.8082 157.528 91.4093 158.77 89.9066C159.486 89.0414 160.751 91.2208 161.185 91.4075C161.615 91.592 162.293 90.8233 162.549 90.6165C162.75 90.4548 163.377 90.9364 163.69 91.0018C165.451 91.3706 163.275 89.8352 163.019 90.9207C162.781 91.9293 163.845 94.1622 164.249 95.1802C165.633 98.6676 165.67 102.036 166.217 105.707C166.724 109.111 166.289 112.837 167.424 116.133C167.75 117.079 167.464 118.106 168.05 118.992C168.167 119.169 170.496 116.17 171.404 115.991C173.747 115.529 172.053 111.143 172.053 109.459C172.053 108.298 172.126 103.56 173.395 103.131C174.877 102.63 176.388 103.41 177.777 103.05C178.965 102.742 179.811 102.969 180.998 102.969C183.978 102.969 186.731 102.32 189.674 102.441C191.645 102.523 193.569 102.969 195.6 102.969C196.933 102.969 197.428 103.629 198.797 103.172C199.682 102.876 201.698 102.369 202.621 102.421C203.529 102.473 204.196 100.132 204.701 100.819C205.064 101.313 205.518 100.976 205.953 100.778C206.714 100.433 207.21 100.992 207.943 101.103C210.178 101.441 211.41 100.092 213.444 99.7236C214.467 99.5379 215.67 99.4559 216.709 99.3382C219.304 99.0439 221.242 98.9572 223.708 99.2368C225.245 99.4111 227.189 99.5134 228.695 99.1151C229.285 98.959 229.664 98.5129 230.327 98.6688C231.469 98.9374 232.508 98.1868 233.547 98.466C234.49 98.7194 235.399 99.3909 236.387 99.6221C238.056 100.013 240.681 99.6018 242.469 99.5004C243.557 99.4388 244.565 98.9066 245.51 99.5004C247.345 100.652 242.69 98.0813 243.028 99.1556C243.203 99.7109 245.274 100.03 245.801 100.048C246.905 100.085 247.341 100.261 248.216 100.413C249.038 100.556 250.452 103.057 251.168 102.441C251.989 101.736 252.407 99.8731 252.644 98.8717C253.276 96.1944 254.36 93.5921 254.88 90.9207C255.288 88.8247 255.417 86.819 256.087 84.7141C256.562 83.2233 258.289 84.3989 259.218 85.2415C259.58 85.5701 259.44 85.9823 260.068 86.0933C260.389 86.1501 261.764 85.7726 261.79 85.8905C262.086 87.2345 262.557 88.1909 262.684 89.8254C263.165 96.0051 264.227 102.055 264.227 108.242C264.227 110.6 264.498 112.513 265.032 114.814C265.105 115.129 265.883 117.737 266.038 117.512C266.856 116.325 267.376 114.822 268.073 113.557C269.264 111.396 271.131 109.669 272.68 107.796C273.562 106.729 278.459 109.175 279.835 109.175C281.059 109.175 282.143 109.883 283.055 108.81C284.359 107.278 284.765 104.789 285.247 102.969C285.526 101.913 287.592 103.725 288.69 103.983C289.81 104.246 290.888 104.458 292 104.794" stroke="#090991" stroke-width="0.5" stroke-linecap="round"/>
<path d="M249 108.606C249.72 107.919 250.053 106.928 250.384 106.074C250.777 105.062 251.172 104.05 251.565 103.038C251.939 102.075 252.497 101.119 252.663 100.119C252.732 99.7058 252.965 99.2343 253.129 98.8401C253.252 98.5452 253.942 96.6103 254.175 97.0704C254.252 97.2232 255.162 97.2697 255.363 97.2383C255.738 97.1797 255.519 97.5447 255.807 97.6065C256.414 97.7368 257.287 97.6521 257.905 97.5871C258.818 97.4911 260.255 98.1488 261.049 97.6129C261.335 97.4198 262.198 97.5654 262.599 97.6904C262.951 97.8006 263.08 98.5753 263.08 98.8465C263.08 100.453 263.559 101.878 264.193 103.348C264.63 104.362 265.182 105.301 265.487 106.371C265.838 107.601 266.058 108.518 266.058 109.775C266.058 110.891 266.161 112.419 266.796 113.431C266.981 113.726 266.829 115.183 267.337 114.826C267.774 114.519 268.017 114.154 268.631 114.096C269.138 114.048 269.904 113.964 270.421 114.096C270.8 114.192 270.818 113.98 271.143 113.98C271.596 113.98 271.883 114.173 272.391 114.096C273.187 113.974 273.668 114.204 274.467 114.07C275.635 113.874 276.603 114.264 277.777 114.302C278.204 114.316 278.097 114.558 278.386 114.703C278.71 114.865 279.136 114.703 279.446 114.6C279.815 114.476 279.745 114.769 280.033 114.858C280.359 114.958 280.834 114.882 281.161 114.826C281.625 114.746 282.107 114.75 282.575 114.793C284.048 114.93 285.492 114.78 286.96 114.78C287.361 114.78 287.638 115 288.021 115C288.521 115 289.046 114.886 289.54 114.826C290.67 114.687 291.86 114.767 293 114.767" stroke="#C80751" stroke-width="0.5" stroke-linecap="round"/>
<path d="M31 134.888C31 126.114 39.9746 119 51.0452 119C62.1159 119 71.0905 126.114 71.0905 134.888V163.238H31V134.888Z" fill="#9C9B9C"/>
<rect x="21" y="94.2186" width="20.0017" height="60.3426" transform="rotate(-27.444 21 94.2186)" fill="#9C9B9C"/>
<rect x="23" y="170" width="7" height="56" transform="rotate(-90 23 170)" fill="#9C9B9C"/>
<rect x="41.3828" y="95.9886" width="19.2397" height="42.3605" transform="rotate(-130.06 41.3828 95.9886)" fill="#9C9B9C"/>
<rect x="99.8203" y="83.6847" width="14.0622" height="40.9491" transform="rotate(140.693 99.8203 83.6847)" fill="#9C9B9C"/>
<circle cx="30.898" cy="90.8982" r="15.898" fill="#9C9B9C"/>
<ellipse cx="69.1331" cy="59.8243" rx="13.1331" ry="13.8243" fill="#9C9B9C"/>
<path d="M89.0022 88.5573C83.7394 91.1831 83.1803 93.9367 83.0232 97.1857C82.8661 100.435 93.8758 113.583 96.3186 115.185C98.7615 116.787 100.926 114.095 100.464 112.601C100.002 111.108 96.7467 105.186 95.8002 100.786C94.8538 96.387 98.4705 91.7122 98.4705 91.7122C98.4705 91.7122 94.265 85.9315 89.0022 88.5573Z" fill="#9C9B9C"/>
<path d="M96.8085 82.8586C100.888 78.6217 103.683 78.9116 106.83 79.7332C109.977 80.5548 119.232 94.9926 120.03 97.8026C120.828 100.613 117.612 101.873 116.325 100.986C115.038 100.099 110.36 95.2209 106.445 93.0023C102.53 90.7837 96.9878 92.837 96.9878 92.837C96.9878 92.837 92.7291 87.0954 96.8085 82.8586Z" fill="#9C9B9C"/>
<circle cx="95.0885" cy="88.9683" r="6.81569" transform="rotate(-12.4801 95.0885 88.9683)" fill="#9C9B9C"/>
<path fill-rule="evenodd" clip-rule="evenodd" d="M269.26 12.0004L281.727 24.4142V55C281.727 56.1046 280.832 57 279.727 57L251 57C249.895 57 249 56.1046 249 55V14C249 12.8954 249.895 12 251 12L269.26 12V12.0004Z" fill="#484848"/>
<path d="M269.258 12.0001L281.725 24.4139H271.258C270.153 24.4139 269.258 23.5185 269.258 22.4139V12.0001Z" fill="#9C9B9C"/>
<path fill-rule="evenodd" clip-rule="evenodd" d="M221.239 136H209C207.895 136 207 136.895 207 138V165.625C207 166.73 207.895 167.625 209 167.625H228C229.105 167.625 230 166.73 230 165.625V144.724L221.239 136V136Z" fill="#484848"/>
<path d="M221.238 136L230 144.724H223.238C222.134 144.724 221.238 143.829 221.238 142.724V136Z" fill="#9C9B9C"/>
<path fill-rule="evenodd" clip-rule="evenodd" d="M168.543 35H159.637C159.084 35 158.637 35.4477 158.637 36V56C158.637 56.5523 159.084 57 159.637 57H173.637C174.189 57 174.637 56.5523 174.637 56V41.0688L168.542 35.0002L168.543 35Z" fill="#484848"/>
<path d="M168.543 35.0001L174.638 41.0691H169.543C168.991 41.0691 168.543 40.6214 168.543 40.0691V35.0001Z" fill="#9C9B9C"/>
</svg>
