<svg width="292" height="180" viewBox="0 0 292 180" fill="none" xmlns="http://www.w3.org/2000/svg">
<path opacity="0.2" d="M270 113L150 113" stroke="#B5B5B5" stroke-width="0.2" stroke-dasharray="1 1"/>
<path opacity="0.2" d="M270 133H150" stroke="#B5B5B5" stroke-width="0.2" stroke-dasharray="1 1"/>
<path opacity="0.2" d="M270 91.9999L150 91.9999" stroke="#B5B5B5" stroke-width="0.2" stroke-dasharray="1 1"/>
<path opacity="0.2" d="M270 70.9999L150 70.9999" stroke="#B5B5B5" stroke-width="0.2" stroke-dasharray="1 1"/>
<path opacity="0.2" d="M270 49.9999L150 49.9999" stroke="#B5B5B5" stroke-width="0.2" stroke-dasharray="1 1"/>
<path opacity="0.2" d="M178 43L178 138" stroke="#B5B5B5" stroke-width="0.2" stroke-dasharray="1 1"/>
<path opacity="0.2" d="M156 43L156 138" stroke="#B5B5B5" stroke-width="0.2" stroke-dasharray="1 1"/>
<path opacity="0.2" d="M200 42.9999L200 138" stroke="#B5B5B5" stroke-width="0.2" stroke-dasharray="1 1"/>
<path opacity="0.2" d="M222 42.9999L222 138" stroke="#B5B5B5" stroke-width="0.2" stroke-dasharray="1 1"/>
<path opacity="0.2" d="M244 42.9999L244 138" stroke="#B5B5B5" stroke-width="0.2" stroke-dasharray="1 1"/>
<path opacity="0.2" d="M266 42.9999L266 138" stroke="#B5B5B5" stroke-width="0.2" stroke-dasharray="1 1"/>
<path d="M156 41.9999C156 53.5071 156.327 67.0152 160.061 78.0523C160.536 79.4538 161.04 80.5113 161.728 81.8017C162.169 82.6288 162.905 83.9911 163.753 84.3786C164.376 84.6635 164.841 84.5134 165.361 85.0625C165.665 85.3836 166.006 85.446 166.31 86.0518C166.472 86.3745 167.007 86.6227 167.293 86.7235C167.49 86.7925 167.455 87.2357 167.455 87.3952C167.455 88.041 167.512 87.4553 167.571 87.5173C167.726 87.6805 167.86 88.7633 167.872 88.6043C167.886 88.4231 167.94 87.7993 168.127 88.2134C168.475 88.9858 168.458 86.9717 168.705 88.0791C169.081 89.7638 169.257 88.7092 170.279 88.9706C170.996 89.1542 170.306 90.2729 171.112 89.3004C171.34 89.0248 171.405 89.7067 171.413 89.8011C171.472 90.5069 171.728 90.0788 172.084 90.3385C172.403 90.5713 172.414 90.9953 172.466 91.3522C172.572 92.0779 172.795 91.366 172.998 91.2178C173.194 91.0745 173.601 91.5426 173.75 91.6575C174.022 91.8661 173.912 93.0625 173.912 92.7078C173.912 90.8411 174.182 92.4056 174.433 93.4039C174.827 94.9739 174.983 92.3992 176.064 93.5138C176.428 93.8881 176.422 94.2558 176.631 94.6985C176.806 95.0676 176.989 94.0569 177.245 94.381C177.382 94.5552 177.527 96.9143 178.078 96.4205C178.29 96.2301 178.631 95.6271 178.98 95.8954C179.099 95.9862 179.298 96.6721 179.524 96.2739C179.993 95.4485 179.685 96.9988 180.161 96.4694C180.724 95.8419 180.753 97.751 180.924 97.6906C181.298 97.5592 181.321 97.1697 181.514 96.8846C181.568 96.8058 181.705 97.3766 182.035 97.1777C182.663 96.7989 182.388 98.5713 182.822 97.3487C183.056 96.6905 183.323 98.9102 183.586 98.4356C184.015 97.6582 183.857 96.4324 184.28 98.1792C184.421 98.761 184.819 98.1732 185.229 98.3379C185.558 98.4704 185.523 99.2226 185.692 98.7898C186.321 97.1761 185.944 98.6925 186.293 99.4981C186.471 99.9084 186.638 99.6224 186.721 99.376C186.929 98.7613 186.899 100.223 187.034 100.365C187.053 100.385 187.247 99.7816 187.288 99.7913C187.524 99.8464 187.443 100.771 187.45 100.964C187.478 101.72 187.819 99.9538 188.179 100.292C188.404 100.503 188.439 100.808 188.538 101.086C188.705 101.555 188.808 100.789 188.862 100.915C188.95 101.12 189.066 101.963 189.313 101.355C189.446 101.029 189.665 100.872 189.73 101.355C189.924 102.79 190.435 101.091 190.621 100.524C190.81 99.9484 190.694 101.567 190.91 101.44C191.555 101.062 191.254 101.413 191.57 100.524C191.763 99.9793 191.788 101.777 191.836 101.977C191.881 102.166 192.175 101.216 192.195 101.135C192.434 100.125 192.823 101.363 192.912 101.745C193.104 102.572 193.291 101.473 193.583 101.782C193.702 101.908 193.933 102.989 194.011 102.857C194.29 102.387 194.265 101.365 194.486 102.503C194.685 103.533 194.856 104.115 195.261 103.003C195.855 101.373 196.445 103.674 196.453 103.675C196.738 103.708 197.081 101.703 197.436 103.015C197.826 104.455 197.683 103.768 198.026 102.722C198.192 102.218 198.34 105.133 199.114 103.907C199.696 102.986 199.627 105.882 199.994 104.334C200.081 103.965 200.098 103.504 200.26 103.162C200.318 103.039 200.435 104.221 200.48 104.408C200.828 105.88 201.399 104.708 201.567 103.919C201.674 103.418 201.587 105.853 202.134 104.005C202.441 102.968 202.841 105.817 203.025 105.214C203.496 103.672 203.085 104.463 203.592 105.592C203.847 106.16 203.893 105.312 203.951 105.141C204.115 104.658 204.869 104.92 205.247 104.75C205.449 104.658 205.971 107.059 206.207 105.311C206.341 104.323 206.583 105.76 206.624 105.934C206.655 106.064 207.361 104.397 207.654 105.287C207.701 105.432 207.887 106.549 207.966 106.35C208.212 105.727 208.039 105.763 208.487 106.118C208.632 106.232 209.22 104.022 209.32 105.36C209.4 106.427 209.392 104.286 209.841 104.823C210.276 105.344 210.226 107.011 210.616 105.702C210.805 105.068 211.051 106.189 211.275 105.873C211.49 105.572 211.399 104.523 211.923 105.397C212.389 106.173 212.431 107.132 212.444 108.023C212.447 108.208 212.408 109.139 212.652 108.462C212.955 107.623 212.942 105.688 213.081 107.803C213.117 108.361 213.137 108.193 213.416 108.34C214.174 108.74 214.021 107.998 214.157 107.339C214.173 107.26 214.41 106.52 214.538 106.814C214.762 107.324 214.738 108.871 215.048 108.414C215.126 108.298 215.419 106.063 215.777 106.997C215.894 107.303 215.849 108.236 216.101 108.426C216.297 108.574 216.542 107.227 216.725 107.192C217.021 107.136 217.193 108.387 217.559 107.656C217.641 107.492 217.842 106.352 218.23 106.777C218.666 107.256 218.653 109.7 219.109 107.534C219.263 106.805 219.731 107.798 219.803 108.047C219.882 108.315 219.832 109.99 220.15 109.22C220.661 107.983 221.335 109.689 221.655 108.34C222.124 106.361 222.062 108.725 222.129 108.682C222.336 108.551 222.844 106.302 223.02 107.437C223.084 107.846 222.944 108.42 223.09 108.804C223.261 109.256 223.638 108.001 223.703 107.949C224.052 107.673 224.104 108.754 224.432 107.754C224.499 107.548 224.718 106.611 224.733 107.388C224.742 107.889 224.592 108.621 224.756 109.097C224.874 109.442 225.521 107.961 225.566 107.876C226.511 106.095 226.266 110.754 226.769 108.927C226.99 108.123 226.861 107.09 227.857 106.997C228.964 106.894 228.467 107.991 229.083 108.511C229.19 108.602 229.395 106.499 229.569 107.339C229.739 108.154 230.061 109.311 230.46 108.047C230.494 107.942 230.605 107.068 230.657 107.095C230.848 107.19 231.221 108.415 231.513 107.852C231.574 107.735 231.598 106.856 231.722 107.156C231.803 107.352 232.136 109.011 232.323 108.56C232.703 107.645 232.794 106.207 232.856 108.291C232.879 109.093 232.842 108.599 233.099 108.572C233.517 108.528 233.906 109.462 234.105 108.621C234.448 107.175 234.378 108.799 234.776 109.22C235.377 109.853 235.718 107.302 235.957 108.499C236.177 109.605 235.831 109.092 236.408 108.585C236.622 108.396 236.782 109.806 237.021 108.756C237.101 108.404 237.234 106.454 237.392 107.827C237.514 108.896 237.437 110.614 237.854 108.633C238.157 107.194 238.048 107.809 238.063 109.073C238.063 109.118 238.154 110.455 238.271 109.745C238.361 109.197 238.307 107.58 238.502 108.096C238.572 108.28 238.927 110.055 239.104 109.83C239.252 109.643 239.624 108.339 239.891 108.365C240.253 108.399 240.203 112.476 240.678 110.685C240.807 110.199 240.899 109.704 241.025 109.22C241.308 108.134 241.711 110.634 241.742 110.758C241.84 111.152 242.197 112.476 242.714 111.821C243.387 110.969 244.378 110.191 244.508 109.024C244.521 108.904 244.511 110.247 244.519 110.563C244.546 111.546 245.031 110.075 245.098 109.806C245.368 108.721 245.097 110.426 245.364 110.99C245.604 111.498 245.959 110.174 245.977 110.099C246.266 108.911 246.255 109.155 247.25 109.073C247.64 109.041 247.956 108.165 247.933 109.012C247.928 109.186 247.644 110.641 248.072 110.453C248.795 110.135 248.638 107.84 248.685 109.61C248.727 111.192 249.578 108.374 249.715 108.157C249.751 108.1 249.941 109.22 250.073 109.268C250.389 109.384 250.72 108.208 250.86 108.414C251.201 108.914 251.449 111.606 251.913 110.245C252.053 109.836 252.185 109.433 252.226 109C252.291 108.313 252.367 110.372 252.48 111.052C252.805 113.008 253.422 109.265 253.915 110.38C254.688 112.127 254.773 108.686 255.072 108.633C256.17 108.44 254.897 113.06 256.079 110.893C256.316 110.458 256.328 109.14 256.646 109.513C257.196 110.158 256.706 110.888 257.502 109.513C258.167 108.365 258.169 110.565 258.648 110.514C258.942 110.483 258.758 108.998 258.914 108.792C259.074 108.581 259.359 111.908 259.724 110.978C260.108 110.001 260.238 107.508 260.337 110.136C260.342 110.263 260.302 112.062 260.719 111.198C261.351 109.889 261.481 111.848 261.899 110.954C262.222 110.262 262.519 109.46 262.732 108.719C262.994 107.81 262.831 108.411 262.86 109.085C262.863 109.157 263.098 111.125 263.38 110.612C263.691 110.047 263.668 108.956 263.681 108.316C263.718 106.53 264.641 111.293 264.838 111.491C265.495 112.151 265.349 108.614 265.926 111.32C266.116 112.209 266.544 110.023 266.62 109.842C266.698 109.658 267.303 110.941 266.805 111.467" stroke="#090991" stroke-width="0.5" stroke-linecap="round"/>
<path d="M156 41.9999C156 55.9729 156.327 72.3757 160.061 85.7778C160.536 87.4796 161.04 88.7637 161.728 90.3306C162.169 91.335 162.905 92.9892 163.753 93.4598C164.376 93.8057 164.841 93.6234 165.361 94.2902C165.665 94.6801 166.006 94.7558 166.31 95.4915C166.472 95.8833 167.007 96.1848 167.293 96.3071C167.49 96.3909 167.455 96.9291 167.455 97.1227C167.455 97.907 167.512 97.1958 167.571 97.271C167.726 97.4692 167.86 98.7841 167.872 98.5909C167.886 98.3709 167.94 97.6134 168.127 98.1164C168.475 99.0542 168.458 96.6085 168.705 97.9532C169.081 99.9989 169.257 98.7183 170.279 99.0358C170.996 99.2587 170.306 100.617 171.112 99.4362C171.34 99.1016 171.405 99.9296 171.413 100.044C171.472 100.901 171.728 100.381 172.084 100.697C172.403 100.979 172.414 101.494 172.466 101.928C172.572 102.809 172.795 101.944 172.998 101.765C173.194 101.59 173.601 102.159 173.75 102.298C174.022 102.552 173.912 104.004 173.912 103.574C173.912 101.307 174.182 103.207 174.433 104.419C174.827 106.325 174.983 103.199 176.064 104.553C176.428 105.007 176.422 105.453 176.631 105.991C176.806 106.439 176.989 105.212 177.245 105.605C177.382 105.817 177.527 108.682 178.078 108.082C178.29 107.851 178.631 107.119 178.98 107.444C179.099 107.555 179.298 108.388 179.524 107.904C179.993 106.902 179.685 108.784 180.161 108.141C180.724 107.379 180.753 109.698 180.924 109.624C181.298 109.465 181.321 108.992 181.514 108.646C181.568 108.55 181.705 109.243 182.035 109.002C182.663 108.542 182.388 110.694 182.822 109.209C183.056 108.41 183.323 111.105 183.586 110.529C184.015 109.585 183.857 108.096 184.28 110.218C184.421 110.924 184.819 110.21 185.229 110.41C185.558 110.571 185.523 111.485 185.692 110.959C186.321 109 185.944 110.841 186.293 111.819C186.471 112.317 186.638 111.97 186.721 111.671C186.929 110.924 186.899 112.699 187.034 112.872C187.053 112.896 187.247 112.163 187.288 112.175C187.524 112.242 187.443 113.365 187.45 113.599C187.478 114.517 187.819 112.373 188.179 112.783C188.404 113.039 188.439 113.41 188.538 113.747C188.705 114.317 188.808 113.387 188.862 113.539C188.95 113.789 189.066 114.812 189.313 114.073C189.446 113.678 189.665 113.488 189.73 114.073C189.924 115.816 190.435 113.754 190.621 113.065C190.81 112.366 190.694 114.331 190.91 114.177C191.555 113.718 191.254 114.144 191.57 113.065C191.763 112.403 191.788 114.586 191.836 114.83C191.881 115.059 192.175 113.905 192.195 113.806C192.434 112.581 192.823 114.084 192.912 114.548C193.104 115.552 193.291 114.217 193.583 114.592C193.702 114.745 193.933 116.058 194.011 115.897C194.29 115.327 194.265 114.086 194.486 115.467C194.685 116.719 194.856 117.425 195.261 116.075C195.855 114.096 196.445 116.89 196.453 116.891C196.738 116.932 197.081 114.496 197.436 116.09C197.826 117.838 197.683 117.004 198.026 115.734C198.192 115.122 198.34 118.662 199.114 117.173C199.696 116.055 199.627 119.571 199.994 117.692C200.081 117.243 200.098 116.683 200.26 116.268C200.318 116.119 200.435 117.555 200.48 117.781C200.828 119.568 201.399 118.145 201.567 117.188C201.674 116.579 201.587 119.535 202.134 117.291C202.441 116.032 202.841 119.492 203.025 118.76C203.496 116.887 203.085 117.848 203.592 119.219C203.847 119.908 203.893 118.879 203.951 118.671C204.115 118.085 204.869 118.403 205.247 118.196C205.449 118.085 205.971 121 206.207 118.878C206.341 117.678 206.583 119.423 206.624 119.635C206.655 119.792 207.361 117.768 207.654 118.849C207.701 119.024 207.887 120.381 207.966 120.139C208.212 119.383 208.039 119.426 208.487 119.857C208.632 119.996 209.22 117.313 209.32 118.938C209.4 120.233 209.392 117.633 209.841 118.285C210.276 118.918 210.226 120.941 210.616 119.353C210.805 118.582 211.051 119.944 211.275 119.56C211.49 119.194 211.399 117.921 211.923 118.982C212.389 119.924 212.431 121.089 212.444 122.171C212.447 122.395 212.408 123.526 212.652 122.704C212.955 121.685 212.942 119.335 213.081 121.904C213.117 122.581 213.137 122.377 213.416 122.556C214.174 123.042 214.021 122.141 214.157 121.34C214.173 121.244 214.41 120.345 214.538 120.702C214.762 121.323 214.738 123.201 215.048 122.645C215.126 122.505 215.419 119.791 215.777 120.925C215.894 121.297 215.849 122.429 216.101 122.66C216.297 122.84 216.542 121.205 216.725 121.162C217.021 121.093 217.193 122.613 217.559 121.726C217.641 121.526 217.842 120.141 218.23 120.658C218.666 121.239 218.653 124.207 219.109 121.577C219.263 120.691 219.731 121.898 219.803 122.2C219.882 122.525 219.832 124.559 220.15 123.624C220.661 122.122 221.335 124.193 221.655 122.556C222.124 120.153 222.062 123.023 222.129 122.971C222.336 122.812 222.844 120.081 223.02 121.459C223.084 121.955 222.944 122.653 223.09 123.12C223.261 123.668 223.638 122.144 223.703 122.082C224.052 121.746 224.104 123.059 224.432 121.844C224.499 121.594 224.718 120.457 224.733 121.399C224.742 122.009 224.592 122.897 224.756 123.476C224.874 123.894 225.521 122.096 225.566 121.993C226.511 119.829 226.266 125.488 226.769 123.268C226.99 122.293 226.861 121.037 227.857 120.925C228.964 120.8 228.467 122.132 229.083 122.764C229.19 122.873 229.395 120.32 229.569 121.34C229.739 122.329 230.061 123.735 230.46 122.2C230.494 122.072 230.605 121.012 230.657 121.043C230.848 121.159 231.221 122.647 231.513 121.963C231.574 121.821 231.598 120.754 231.722 121.118C231.803 121.356 232.136 123.371 232.323 122.823C232.703 121.711 232.794 119.965 232.856 122.497C232.879 123.471 232.842 122.871 233.099 122.838C233.517 122.784 233.906 123.919 234.105 122.897C234.448 121.142 234.378 123.113 234.776 123.624C235.377 124.393 235.718 121.296 235.957 122.749C236.177 124.092 235.831 123.469 236.408 122.853C236.622 122.624 236.782 124.336 237.021 123.06C237.101 122.633 237.234 120.265 237.392 121.933C237.514 123.231 237.437 125.317 237.854 122.912C238.157 121.165 238.048 121.911 238.063 123.446C238.063 123.501 238.154 125.124 238.271 124.262C238.361 123.597 238.307 121.633 238.502 122.259C238.572 122.483 238.927 124.638 239.104 124.365C239.252 124.138 239.624 122.555 239.891 122.586C240.253 122.628 240.203 127.579 240.678 125.403C240.807 124.813 240.899 124.212 241.025 123.624C241.308 122.305 241.711 125.342 241.742 125.492C241.84 125.97 242.197 127.578 242.714 126.783C243.387 125.748 244.378 124.804 244.508 123.387C244.521 123.241 244.511 124.872 244.519 125.255C244.546 126.449 245.031 124.662 245.098 124.336C245.368 123.018 245.097 125.089 245.364 125.774C245.604 126.39 245.959 124.783 245.977 124.692C246.266 123.249 246.255 123.546 247.25 123.446C247.64 123.407 247.956 122.343 247.933 123.372C247.928 123.584 247.644 125.35 248.072 125.122C248.795 124.735 248.638 121.948 248.685 124.098C248.727 126.019 249.578 122.597 249.715 122.334C249.751 122.264 249.941 123.624 250.073 123.683C250.389 123.823 250.72 122.396 250.86 122.645C251.201 123.252 251.449 126.522 251.913 124.87C252.053 124.373 252.185 123.883 252.226 123.357C252.291 122.524 252.367 125.023 252.48 125.848C252.805 128.224 253.422 123.679 253.915 125.033C254.688 127.155 254.773 122.976 255.072 122.912C256.17 122.678 254.897 128.287 256.079 125.656C256.316 125.128 256.328 123.527 256.646 123.98C257.196 124.764 256.706 125.649 257.502 123.98C258.167 122.586 258.169 125.257 258.648 125.196C258.942 125.158 258.758 123.354 258.914 123.105C259.074 122.849 259.359 126.888 259.724 125.759C260.108 124.572 260.238 121.545 260.337 124.736C260.342 124.89 260.302 127.075 260.719 126.026C261.351 124.436 261.481 126.816 261.899 125.73C262.222 124.89 262.519 123.916 262.732 123.016C262.994 121.913 262.831 122.642 262.86 123.461C262.863 123.548 263.098 125.937 263.38 125.314C263.691 124.628 263.668 123.304 263.681 122.526C263.718 120.358 264.641 126.142 264.838 126.382C265.495 127.184 265.349 122.889 265.926 126.175C266.116 127.254 266.544 124.6 266.62 124.38C266.698 124.156 267.303 125.714 266.805 126.353" stroke="#C80751" stroke-width="0.5" stroke-linecap="round"/>
<path d="M23.7231 24.22H128.443C130.266 24.22 131.743 25.6975 131.743 27.52V129.6C131.743 131.423 130.266 132.9 128.443 132.9H23.7231C21.9006 132.9 20.4231 131.423 20.4231 129.6V27.52C20.4231 25.6975 21.9006 24.22 23.7231 24.22Z" fill="#171717" stroke="#444444" stroke-width="0.44"/>
<path d="M45.7227 31.0399H72.1227" stroke="#484848" stroke-width="1.76" stroke-linecap="round"/>
<path d="M45.7227 44.24H72.1227" stroke="#484848" stroke-width="1.76" stroke-linecap="round"/>
<path d="M45.7227 57.4399H63.3227" stroke="#484848" stroke-width="1.76" stroke-linecap="round"/>
<path d="M45.7227 69.76H72.1227" stroke="#484848" stroke-width="1.76" stroke-linecap="round"/>
<path d="M45.7227 82.9601H63.3227" stroke="#484848" stroke-width="1.76" stroke-linecap="round"/>
<path d="M45.7227 97.0399H72.1227" stroke="#484848" stroke-width="1.76" stroke-linecap="round"/>
<path d="M30.7656 31.0399H35.1656" stroke="#484848" stroke-width="1.76" stroke-linecap="round"/>
<path d="M30.7656 44.24H35.1656" stroke="#484848" stroke-width="1.76" stroke-linecap="round"/>
<path d="M30.7656 57.4399H35.1656" stroke="#484848" stroke-width="1.76" stroke-linecap="round"/>
<path d="M30.7656 69.76H35.1656" stroke="#484848" stroke-width="1.76" stroke-linecap="round"/>
<path d="M30.7656 82.9601H35.1656" stroke="#484848" stroke-width="1.76" stroke-linecap="round"/>
<path d="M30.7656 97.0399H35.1656" stroke="#484848" stroke-width="1.76" stroke-linecap="round"/>
<path d="M82.6797 31.0399H92.3597" stroke="#484848" stroke-width="1.76" stroke-linecap="round"/>
<path d="M82.6797 69.76H87.0797" stroke="#484848" stroke-width="1.76" stroke-linecap="round"/>
<path d="M82.6797 82.9601H87.0797" stroke="#484848" stroke-width="1.76" stroke-linecap="round"/>
<path d="M82.6797 97.0399H87.0797" stroke="#484848" stroke-width="1.76" stroke-linecap="round"/>
<path d="M91.4844 82.9601H95.8844" stroke="#484848" stroke-width="1.76" stroke-linecap="round"/>
<path d="M91.4844 69.76H95.8844" stroke="#484848" stroke-width="1.76" stroke-linecap="round"/>
<path d="M91.4844 97.0399H95.8844" stroke="#484848" stroke-width="1.76" stroke-linecap="round"/>
<path d="M107.324 31.0399H120.524" stroke="#484848" stroke-width="1.76" stroke-linecap="round"/>
<path d="M107.324 69.76H120.524" stroke="#484848" stroke-width="1.76" stroke-linecap="round"/>
<path d="M107.324 82.9601H120.524" stroke="#484848" stroke-width="1.76" stroke-linecap="round"/>
<path d="M107.324 97.0399H120.524" stroke="#484848" stroke-width="1.76" stroke-linecap="round"/>
<path d="M20.2031 50.4H131.963" stroke="#444444" stroke-width="0.44"/>
<path d="M20.2031 38.0801H131.963" stroke="#444444" stroke-width="0.44"/>
<path d="M20.2031 63.6H131.963" stroke="#444444" stroke-width="0.44"/>
<path d="M20.2031 76.7999H131.963" stroke="#444444" stroke-width="0.44"/>
<path d="M20.2031 90H131.963" stroke="#444444" stroke-width="0.44"/>
<path d="M20.2031 104.08H131.963" stroke="#444444" stroke-width="0.44"/>
<path d="M84.52 44.22H138.2C140.023 44.22 141.5 45.6975 141.5 47.52V66C141.5 67.8225 140.023 69.3 138.2 69.3H84.52C82.6975 69.3 81.22 67.8225 81.22 66V47.52C81.22 45.6975 82.6975 44.22 84.52 44.22Z" fill="black" stroke="#444444" stroke-width="0.44"/>
<path d="M81 56.3201L141.72 56.3201" stroke="#444444" stroke-width="0.44"/>
<path d="M92.4375 51.0399H96.8375" stroke="#9C9B9C" stroke-width="1.76" stroke-linecap="round"/>
<path d="M92.4375 63.36H96.8375" stroke="#9C9B9C" stroke-width="1.76" stroke-linecap="round"/>
<path d="M101.238 51.0399H105.638" stroke="#9C9B9C" stroke-width="1.76" stroke-linecap="round"/>
<path d="M101.238 63.36H105.638" stroke="#9C9B9C" stroke-width="1.76" stroke-linecap="round"/>
<path d="M117.082 51.0399H130.282" stroke="#9C9B9C" stroke-width="1.76" stroke-linecap="round"/>
<path d="M117.082 63.36H130.282" stroke="#9C9B9C" stroke-width="1.76" stroke-linecap="round"/>
<path d="M10.52 115.74H115.24C117.063 115.74 118.54 117.217 118.54 119.04V152.48C118.54 154.303 117.063 155.78 115.24 155.78H10.52C8.69746 155.78 7.22 154.303 7.22 152.48V119.04C7.22 117.217 8.69746 115.74 10.52 115.74Z" fill="#0F0F0F" stroke="#444444" stroke-width="0.44"/>
<path d="M32.5195 122.56H58.9195" stroke="#9C9B9C" stroke-width="1.76" stroke-linecap="round"/>
<path d="M32.5195 135.76H58.9195" stroke="#9C9B9C" stroke-width="1.76" stroke-linecap="round"/>
<path d="M32.5195 148.96H50.1195" stroke="#9C9B9C" stroke-width="1.76" stroke-linecap="round"/>
<path d="M17.5625 122.56H21.9625" stroke="#9C9B9C" stroke-width="1.76" stroke-linecap="round"/>
<path d="M17.5625 135.76H21.9625" stroke="#9C9B9C" stroke-width="1.76" stroke-linecap="round"/>
<path d="M17.5625 148.96H21.9625" stroke="#9C9B9C" stroke-width="1.76" stroke-linecap="round"/>
<path d="M69.4766 122.56H79.1566" stroke="#9C9B9C" stroke-width="1.76" stroke-linecap="round"/>
<path d="M69.4766 135.76H73.8766" stroke="#9C9B9C" stroke-width="1.76" stroke-linecap="round"/>
<path d="M79.1602 135.76H83.5602" stroke="#9C9B9C" stroke-width="1.76" stroke-linecap="round"/>
<path d="M69.4766 148.96H73.8766" stroke="#9C9B9C" stroke-width="1.76" stroke-linecap="round"/>
<path d="M78.2812 148.96H82.6812" stroke="#9C9B9C" stroke-width="1.76" stroke-linecap="round"/>
<path d="M94.1211 122.56H107.321" stroke="#9C9B9C" stroke-width="1.76" stroke-linecap="round"/>
<path d="M94.1211 135.76H107.321" stroke="#9C9B9C" stroke-width="1.76" stroke-linecap="round"/>
<path d="M94.1211 148.96H107.321" stroke="#9C9B9C" stroke-width="1.76" stroke-linecap="round"/>
<path d="M7 141.92H118.76" stroke="#444444" stroke-width="0.44"/>
<path d="M7 128.72H118.76" stroke="#444444" stroke-width="0.44"/>
</svg>
