<svg width="292" height="180" viewBox="0 0 292 180" fill="none" xmlns="http://www.w3.org/2000/svg">
<path d="M60.8398 27.5H234.963C236.896 27.5 238.463 29.067 238.463 31V139.689H57.3398V31C57.3398 29.067 58.9068 27.5 60.8398 27.5Z" stroke="white" stroke-opacity="0.1" stroke-width="5"/>
<path d="M38 142.189H253.995V149.976C253.995 153.289 251.308 155.976 247.995 155.976H44C40.6863 155.976 38 153.289 38 149.976V142.189Z" fill="#3F3F3F"/>
<path d="M123.016 142.189H168.972V143.082C168.972 146.396 166.286 149.082 162.972 149.082H129.016C125.702 149.082 123.016 146.396 123.016 143.082V142.189Z" fill="white" fill-opacity="0.07"/>
<path d="M106.167 61.9438L105.313 43.2665L137.004 45.2068V65.3941L106.167 61.9438Z" stroke="#9C9B9C" stroke-width="0.5"/>
<path d="M105.156 43.1101L111.181 71.8081M111.181 71.8081L106.033 62.1691M111.181 71.8081L136.812 45.3008M111.181 71.8081L136.812 65.6742" stroke="#9C9B9C" stroke-width="0.5"/>
<path d="M93.25 79.5056L120.791 79.5057V79.5091V79.5136V79.5181V79.5227V79.5274V79.5321V79.5368V79.5416V79.5465V79.5514V79.5563V79.5613V79.5664V79.5715V79.5767V79.5819V79.5872V79.5925V79.5979V79.6034V79.6089V79.6144V79.62V79.6257V79.6314V79.6372V79.6431V79.649V79.6549V79.6609V79.667V79.6731V79.6793V79.6856V79.6919V79.6983V79.7047V79.7112V79.7178V79.7244V79.731V79.7378V79.7446V79.7514V79.7584V79.7654V79.7724V79.7795V79.7867V79.7939V79.8012V79.8086V79.816V79.8235V79.8311V79.8387V79.8464V79.8542V79.862V79.8699V79.8779V79.8859V79.894V79.9022V79.9104V79.9187V79.9271V79.9355V79.944V79.9526V79.9612V79.9699V79.9787V79.9876V79.9965V80.0055V80.0146V80.0237V80.0329V80.0422V80.0516V80.061V80.0705V80.0801V80.0897V80.0995V80.1093V80.1191V80.1291V80.1391V80.1492V80.1594V80.1696V80.1799V80.1903V80.2008V80.2114V80.222V80.2327V80.2435V80.2544V80.2653V80.2763V80.2874V80.2986V80.3099V80.3212V80.3326V80.3441V80.3557V80.3674V80.3791V80.3909V80.4028V80.4148V80.4269V80.439V80.4513V80.4636V80.476V80.4885V80.501V80.5137V80.5264V80.5392V80.5521V80.5651V80.5782V80.5914V80.6046V80.618V80.6314V80.6449V80.6585V80.6722V80.6859V80.6998V80.7137V80.7278V80.7419V80.7561V80.7704V80.7848V80.7993V80.8139V80.8285V80.8433V80.8581V80.8731V80.8881V80.9032V80.9184V80.9337V80.9491V80.9646V80.9802V80.9959V81.0116V81.0275V81.0435V81.0595V81.0757V81.0919V81.1083V81.1247V81.1412V81.1579V81.1746V81.1914V81.2083V81.2253V81.2424V81.2597V81.277V81.2944V81.3119V81.3295V81.3472V81.365V81.3829V81.4009V81.419V81.4372V81.4555V81.474V81.4925V81.5111V81.5298V81.5486V81.5675V81.5866V81.6057V81.6249V81.6442V81.6637V81.6832V81.7029V81.7226V81.7425V81.7625V81.7825V81.8027V81.823V81.8434V81.8639V81.8845V81.9052V81.926V81.9469V81.968V81.9891V82.0104V82.0317V82.0532V82.0748V82.0965V82.1183V82.1402V82.1622V82.1843V82.2066V82.2289V82.2514V82.274V82.2967V82.3195V82.3424V82.3654V82.3886V82.4118V82.4352V82.4587V82.4823V82.506V82.5298V82.5538V82.5779V82.602V82.6263V82.6507V82.6753V82.6999V82.7247V82.7496V82.7746V82.7997V82.8249V82.8503V82.8758V82.9014V82.9271V82.9529V82.9789V83.0049V83.0311V83.0574V83.0839V83.1104V83.1371V83.1639V83.1909V83.2179V83.2451V83.2724V83.2998V83.3273V83.355V83.3828V83.4107V83.4388V83.4669V83.4952V83.5236V83.5522V83.5809V83.6097V83.6386V83.6676V83.6968V83.7261V83.7556V83.7851V83.8148V83.8446V83.8746V83.9047V83.9349V83.9652V83.9957V84.0263V84.057V84.0879V84.1189V84.15V84.1812V84.2126V84.2442V84.2758V84.3076V84.3395V84.3716V84.4038C120.791 87.054 119.281 89.4774 116.79 91.2482C114.3 93.0186 110.847 94.1214 107.021 94.1214C103.195 94.1214 99.7419 93.0186 97.2517 91.2482C94.761 89.4774 93.2504 87.054 93.2504 84.4038L93.2502 80.6901L93.2501 79.6327L93.25 79.5056Z" fill="#9C9B9C" stroke="#171717" stroke-width="0.5"/>
<path d="M120.791 80.0235C120.791 82.5477 119.286 84.8614 116.794 86.5551C114.303 88.2479 110.849 89.303 107.02 89.303C103.192 89.303 99.7376 88.2479 97.247 86.5551C94.7551 84.8614 93.25 82.5477 93.25 80.0235C93.25 77.4994 94.7551 75.1856 97.247 73.4919C99.7376 71.7991 103.192 70.744 107.02 70.744C110.849 70.744 114.303 71.7991 116.794 73.4919C119.286 75.1856 120.791 77.4994 120.791 80.0235Z" fill="#9C9B9C" stroke="#171717" stroke-width="0.5"/>
<path d="M116.985 87.5801C116.474 87.9817 115.101 88.8726 113.699 89.2231V90.2089C115.123 89.9898 116.511 88.931 116.985 88.5659V87.5801Z" fill="#171717" stroke="#171717" stroke-width="0.297251"/>
<ellipse cx="107.02" cy="80.0231" rx="3.28603" ry="2.30022" fill="#171717"/>
<path d="M64.8984 121.332H103.322L104.157 117.332H104.714L104.993 118.665L105.271 116.998L105.828 119.332L106.106 117.665H106.663L106.942 117.998L107.22 117.665L107.498 118.332L107.777 117.665H108.891L109.169 117.998L109.447 117.332H110.004L110.283 117.998L110.561 116.998H111.118V118.665L111.396 117.998H111.953V118.665L112.51 117.998H113.345L113.624 118.665L113.902 117.332H114.738L115.016 117.998L115.294 117.665H115.573L115.851 118.332L116.13 117.998H116.687L116.965 118.665V117.998H117.67L117.8 118.665H118.357L118.636 119.332H118.914V119.998H119.192L119.471 120.665H120.028L120.306 120.998V121.332H128.381L128.938 119.332L129.216 119.998L129.494 118.665H130.051L130.33 119.332L130.608 118.998H131.165L131.722 119.332L132.279 118.998L132.557 119.998L132.836 119.332H133.671L134.228 119.998H134.785L135.063 120.665H135.62L135.898 121.332H136.455V120.665H136.734L137.012 121.332L137.29 120.665L137.569 121.332H138.683L138.961 122.331L139.518 121.665L139.796 122.331L140.075 121.998V122.998H140.632V122.331L140.91 121.998H141.467L141.745 121.332H229.894" stroke="#C80751" stroke-width="0.5" stroke-linecap="round"/>
<path d="M64.8984 123.654H131.612L132.803 111.435H133.994L134.59 112.873L135.185 109.998L135.781 129.763L136.377 126.169V128.325L137.27 124.732V130.841L138.164 126.169V130.841H138.759V132.997H139.355L139.653 119.341L140.249 122.576V117.544L140.844 121.138L141.44 123.654H163.181V129.763H165.862V128.325H166.457V126.169H166.755V124.732H167.351V121.138H167.946V118.982L168.244 117.904V119.701L168.84 118.982V117.724M168.84 116.466V117.724M168.84 117.724L169.138 121.138V122.576H229.894" stroke="#090991" stroke-width="0.5" stroke-linecap="round"/>
<rect x="165" y="93.1" width="3.6" height="0.899977" fill="#9C9B9C"/>
<rect x="201" y="58.9" width="3.6" height="35.1" fill="#9C9B9C"/>
<rect x="204.602" y="50.8" width="3.6" height="43.1989" fill="#9C9B9C"/>
<rect x="208.199" y="82.3" width="3.6" height="11.6997" fill="#9C9B9C"/>
<rect x="211.801" y="86.8" width="3.6" height="7.19982" fill="#9C9B9C"/>
<rect x="215.398" y="92.2" width="3.6" height="1.79995" fill="#9C9B9C"/>
<rect x="168.602" y="91.3" width="3.6" height="2.69993" fill="#9C9B9C"/>
<rect x="175.801" y="91.3" width="3.6" height="2.69993" fill="#9C9B9C"/>
<rect x="183" y="91.3" width="3.6" height="2.69993" fill="#9C9B9C"/>
<rect x="179.398" y="88.6" width="3.6" height="5.39986" fill="#9C9B9C"/>
<rect x="186.602" y="85" width="3.6" height="8.99977" fill="#9C9B9C"/>
<rect x="193.801" y="65.2" width="3.6" height="28.7993" fill="#9C9B9C"/>
<rect x="197.398" y="68.8" width="3.6" height="25.1994" fill="#9C9B9C"/>
<rect x="190.199" y="76" width="3.6" height="17.9995" fill="#9C9B9C"/>
<rect x="172.199" y="93.1" width="3.6" height="0.899977" fill="#9C9B9C"/>
</svg>
